<svg width="24" height="24" viewBox="0 0 24 24" fill="none" xmlns="http://www.w3.org/2000/svg">
<path fill-rule="evenodd" clip-rule="evenodd" d="M17.0876 3.57428L14.9468 3L14.0732 6.25942C12.7011 6.0243 11.2989 6.0243 9.92683 6.25942L9.05321 3L6.91242 3.57317L7.78492 6.83259C6.4789 7.31427 5.2651 8.01623 4.19623 8.90798L1.80931 6.51995L0.240576 8.08869L2.62749 10.4756C1.27969 12.0905 0.374316 14.0277 0 16.0976L2.18182 16.4945C3.02328 11.8359 7.09978 8.30155 12 8.30155C16.9013 8.30155 20.9767 11.8359 21.8182 16.4945L24 16.0965C23.6252 14.0269 22.7194 12.0901 21.3714 10.4756L23.7594 8.08869L22.1907 6.51995L19.8038 8.90798C18.7349 8.01623 17.5211 7.31427 16.2151 6.83259L17.0876 3.57428ZM15.5 16.0001C15.5 17.6193 14.2963 19.5003 12.0001 19.5001C9.70359 19.4999 8.5 17.619 8.5 16.0001C8.5 14.3809 9.70378 12.4999 11.9999 12.5001C14.2964 12.5003 15.5 14.3811 15.5 16.0001ZM11.9999 22.5001C16.3705 22.5004 18.5 18.8253 18.5 16.0001C18.5 13.1746 16.3703 9.50043 12.0001 9.50007C7.62956 9.49971 5.5 13.1748 5.5 16.0001C5.5 18.8256 7.62971 22.4997 11.9999 22.5001Z" fill="#212121"/>
</svg>
